<svg width="1440" height="863" viewBox="0 0 1440 863" fill="none" xmlns="http://www.w3.org/2000/svg">
<g opacity="0.3">
<path d="M622.022 0.756104C662.976 162.185 604.896 267.966 396.499 366.83C188.102 465.695 66.5088 509.394 0 680.015V0.756104H622.022Z" fill="url(#paint0_linear_329_659)"/>
<path d="M1075.14 0.756104C1150.66 161.03 1139.14 345.395 971.462 503.634C832.32 634.954 724.166 709.607 653.894 863H1440V0.756104H1075.14Z" fill="url(#paint1_linear_329_659)"/>
<path opacity="0.5" d="M757.018 863C757.018 863 682.176 685.292 880.589 599.067C1079 512.843 1182.66 470.352 1222.35 330.064C1262.04 189.777 1318.46 140.336 1440 126.54V863H757.018Z" fill="url(#paint2_linear_329_659)"/>
<path opacity="0.5" d="M1440 718.643C1263.3 812.904 989.395 709.434 804.403 569.182C630.701 437.483 423.629 394.215 245.702 465.333C48.4416 544.159 0 750.339 0 750.339V863H1440V718.643Z" fill="url(#paint3_linear_329_659)"/>
<path opacity="0.5" d="M0 436.965C174.509 515.136 302.592 399.026 318.317 302.455C334.042 205.884 339.149 46.2653 541.382 0.756104H0V436.965Z" fill="url(#paint4_linear_329_659)"/>
<path opacity="0.5" d="M1440 290.039C1351.62 413.961 1177.56 431.326 1045.71 320.838C931.258 224.94 788.179 115.262 595.142 126.54C339.36 141.492 223.949 122.143 154.829 0.756104H1440V290.039Z" fill="url(#paint5_linear_329_659)"/>
<path opacity="0.5" d="M0 186.052C69.0624 345.412 304.013 335.807 403.334 224.232C491.501 125.178 580.742 57.5607 751.622 98.1034C922.502 138.646 1005.06 175.723 1100.1 136.059C1195.14 96.3962 1195.14 0.756104 1195.14 0.756104H0V186.052Z" fill="url(#paint6_linear_329_659)"/>
<path opacity="0.5" d="M0 554.558C0 554.558 176.851 437.775 345.542 536.985C526.022 643.128 524.102 771.499 737.242 862.983H0V554.558Z" fill="url(#paint7_linear_329_659)"/>
</g>
<defs>
<linearGradient id="paint0_linear_329_659" x1="120.257" y1="0.41483" x2="325.517" y2="453.888" gradientUnits="userSpaceOnUse">
<stop stop-color="#F2EA00"/>
<stop offset="1" stop-color="#F2B100"/>
</linearGradient>
<linearGradient id="paint1_linear_329_659" x1="1419.96" y1="883.382" x2="1060.27" y2="343.676" gradientUnits="userSpaceOnUse">
<stop stop-color="#F2EA00"/>
<stop offset="1" stop-color="#F2B100"/>
</linearGradient>
<linearGradient id="paint2_linear_329_659" x1="1043.14" y1="953.115" x2="1201.33" y2="366.923" gradientUnits="userSpaceOnUse">
<stop stop-color="#F24500"/>
<stop offset="0.3401" stop-color="#F28000"/>
<stop offset="0.7907" stop-color="#F2C900"/>
<stop offset="1" stop-color="#F2E600"/>
</linearGradient>
<linearGradient id="paint3_linear_329_659" x1="587.361" y1="302.129" x2="689.687" y2="769.468" gradientUnits="userSpaceOnUse">
<stop stop-color="#F24500"/>
<stop offset="0.3401" stop-color="#F28000"/>
<stop offset="0.7907" stop-color="#F2C900"/>
<stop offset="1" stop-color="#F2E600"/>
</linearGradient>
<linearGradient id="paint4_linear_329_659" x1="104.89" y1="66.2423" x2="426.389" y2="433.076" gradientUnits="userSpaceOnUse">
<stop stop-color="#F24500"/>
<stop offset="0.3401" stop-color="#F28000"/>
<stop offset="0.7907" stop-color="#F2C900"/>
<stop offset="1" stop-color="#F2E600"/>
</linearGradient>
<linearGradient id="paint5_linear_329_659" x1="676.619" y1="-101.856" x2="1401.05" y2="724.723" gradientUnits="userSpaceOnUse">
<stop stop-color="#F24500"/>
<stop offset="0.3401" stop-color="#F28000"/>
<stop offset="0.7907" stop-color="#F2C900"/>
<stop offset="1" stop-color="#F2E600"/>
</linearGradient>
<linearGradient id="paint6_linear_329_659" x1="800.459" y1="345.055" x2="516.635" y2="-80.8065" gradientUnits="userSpaceOnUse">
<stop stop-color="#F25A00"/>
<stop offset="0.2506" stop-color="#F28000"/>
<stop offset="0.7625" stop-color="#F2C900"/>
<stop offset="1" stop-color="#F2E600"/>
</linearGradient>
<linearGradient id="paint7_linear_329_659" x1="502.233" y1="1024.72" x2="241.982" y2="634.227" gradientUnits="userSpaceOnUse">
<stop stop-color="#F24500"/>
<stop offset="0.3401" stop-color="#F28000"/>
<stop offset="0.7907" stop-color="#F2C900"/>
<stop offset="1" stop-color="#F2E600"/>
</linearGradient>
</defs>
</svg>
